<svg xmlns="http://www.w3.org/2000/svg" viewBox="0 0 24 24" fill="currentColor" width="24" height="24">
  <path d="M10.8,18.5 C10.8,18.5 13.8,9.5 14.3,8 C14.6,7.1 14.7,6.3 14.1,5.6 C13.6,5 12.8,4.8 11.9,5 C11.3,5.2 10.9,5.5 10.8,5.7 C11.2,5.7 11.6,6 11.8,6.4 C12.1,6.9 12,7.5 11.6,7.9 C11.2,8.3 10.6,8.5 10,8.3 C9.5,8.1 9.2,7.6 9.2,7.1 C9.2,6 10.2,4.8 11.7,4.4 C13.3,4 14.8,4.5 15.6,5.6 C16.3,6.7 16.2,8 15.6,9.2 C15.4,9.7 15.1,10.3 14.8,10.8 C15.2,10.6 15.7,10.4 16.2,10.4 C17.3,10.4 18.2,11.2 18.2,12.3 C18.2,13 17.8,13.6 17.2,13.9 C17,13.4 16.6,13.1 16.2,13.1 C15.8,13.1 15.4,13.4 15.2,13.8 C15,14.2 15.1,14.7 15.4,15.1 C15.8,15.4 16.3,15.5 16.8,15.3 C17.4,15.1 17.8,14.6 17.8,14 C17.8,12.8 16.8,11.7 15.4,11.7 C14.7,11.7 14,12 13.5,12.5 L10.8,18.5 Z" />
</svg>